bw_sq_02
version=1
nRows=20
nColumns=46
inDegrees=yes
endheader
time	ground_force3_vx	ground_force3_vy	ground_force3_vz	ground_force3_px	ground_force3_py	ground_force3_pz	ground_torque3_x	ground_torque3_y	ground_torque3_z	ground_force5_vx	ground_force5_vy	ground_force5_vz	ground_force5_px	ground_force5_py	ground_force5_pz	ground_torque5_x	ground_torque5_y	ground_torque5_z	ground_force4_vx	ground_force4_vy	ground_force4_vz	ground_force4_px	ground_force4_py	ground_force4_pz	ground_torque4_x	ground_torque4_y	ground_torque4_z	ground_force1_vx	ground_force1_vy	ground_force1_vz	ground_force1_px	ground_force1_py	ground_force1_pz	ground_torque1_x	ground_torque1_y	ground_torque1_z	ground_force2_vx	ground_force2_vy	ground_force2_vz	ground_force2_px	ground_force2_py	ground_force2_pz	ground_torque2_x	ground_torque2_y	ground_torque2_z
0.000000	-0.000000	-0.000000	0.000000	0.200000	0.000000	-0.300000	0.000000	0.000000	-0.000000	3.461101	333.378754	25.167429	0.223912	0.000000	-1.320952	0.000022	0.184098	0.000006	-4.241222	340.478699	-26.771362	0.237476	0.000000	-1.047820	0.000025	0.147827	0.000009	-0.000000	-0.000000	0.000000	0.200000	0.000000	0.904000	0.000000	0.000000	-0.000000	-0.000000	-0.000000	0.000000	0.400000	0.000000	0.302000	0.000000	0.000000	-0.000000	
0.001000	-0.000000	-0.000000	0.000000	0.200000	0.000000	-0.300000	0.000000	0.000000	-0.000000	2.172925	330.829315	24.845682	0.224511	0.000000	-1.319874	-0.000009	-0.030361	0.000003	-4.893115	339.521698	-26.770342	0.236771	0.000000	-1.048126	0.000013	0.069345	0.000004	-0.000000	-0.000000	0.000000	0.200000	0.000000	0.904000	0.000000	0.000000	-0.000000	-0.000000	-0.000000	0.000000	0.400000	0.000000	0.302000	0.000000	0.000000	-0.000000	
0.002000	-0.000000	-0.000000	0.000000	0.200000	0.000000	-0.300000	0.000000	0.000000	-0.000000	3.460082	334.018890	24.845682	0.224448	0.000000	-1.321425	-0.000003	0.266820	-0.000001	-4.403811	339.524048	-27.576073	0.236783	0.000000	-1.049053	0.000019	0.174530	0.000005	-0.000000	-0.000000	0.000000	0.200000	0.000000	0.904000	0.000000	0.000000	-0.000000	-0.000000	-0.000000	0.000000	0.400000	0.000000	0.302000	0.000000	0.000000	-0.000000	
0.003000	-0.000000	-0.000000	0.000000	0.200000	0.000000	-0.300000	0.000000	0.000000	-0.000000	3.460082	331.466431	24.845345	0.224248	0.000000	-1.321137	0.000033	0.234210	0.000005	-4.241223	339.847656	-28.222288	0.236497	0.000000	-1.048415	0.000006	0.118582	0.000007	-0.000000	-0.000000	0.000000	0.200000	0.000000	0.904000	0.000000	0.000000	-0.000000	-0.000000	-0.000000	0.000000	0.400000	0.000000	0.302000	0.000000	0.000000	-0.000000	
0.004000	-0.000000	-0.000000	0.000000	0.200000	0.000000	-0.300000	0.000000	0.000000	-0.000000	3.138675	331.466766	25.488497	0.224581	0.000000	-1.319733	0.000035	0.130124	0.000004	-4.400722	340.486053	-27.735584	0.235953	0.000000	-1.049294	0.000009	0.345344	0.000002	-0.000000	-0.000000	0.000000	0.200000	0.000000	0.904000	0.000000	0.000000	-0.000000	-0.000000	-0.000000	0.000000	0.400000	0.000000	0.302000	0.000000	0.000000	-0.000000	
0.005000	-0.000000	-0.000000	0.000000	0.200000	0.000000	-0.300000	0.000000	0.000000	-0.000000	3.300397	331.468414	25.006895	0.224796	0.000000	-1.319824	0.000005	0.127255	0.000006	-4.241222	340.486389	-27.897141	0.236219	0.000000	-1.048491	0.000031	0.215352	0.000004	-0.000000	-0.000000	0.000000	0.200000	0.000000	0.904000	0.000000	0.000000	-0.000000	-0.000000	-0.000000	0.000000	0.400000	0.000000	0.302000	0.000000	0.000000	-0.000000	
0.006000	-0.000000	-0.000000	0.000000	0.200000	0.000000	-0.300000	0.000000	0.000000	-0.000000	2.816759	332.106201	25.166750	0.224502	0.000000	-1.320620	0.000024	0.039700	0.000001	-3.917594	341.438660	-28.220249	0.236855	0.000000	-1.048648	-0.000001	0.159733	0.000003	-0.000000	-0.000000	0.000000	0.200000	0.000000	0.904000	0.000000	0.000000	-0.000000	-0.000000	-0.000000	0.000000	0.400000	0.000000	0.302000	0.000000	0.000000	-0.000000	
0.007000	-0.000000	-0.000000	0.000000	0.200000	0.000000	-0.300000	0.000000	0.000000	-0.000000	2.978480	333.060883	25.006216	0.224552	0.000000	-1.321028	0.000031	-0.006525	0.000000	-3.107748	340.157410	-28.061754	0.236849	0.000000	-1.049636	0.000019	-0.025392	0.000005	-0.000000	-0.000000	0.000000	0.200000	0.000000	0.904000	0.000000	0.000000	-0.000000	-0.000000	-0.000000	0.000000	0.400000	0.000000	0.302000	0.000000	0.000000	-0.000000	
0.008000	-0.000000	-0.000000	0.000000	0.200000	0.000000	-0.300000	0.000000	0.000000	-0.000000	3.461101	330.191559	24.684132	0.224517	0.000000	-1.319060	0.000026	0.052215	0.000006	-3.592420	340.490112	-27.739666	0.235694	0.000000	-1.048506	0.000032	0.030233	0.000006	-0.000000	-0.000000	0.000000	0.200000	0.000000	0.904000	0.000000	0.000000	-0.000000	-0.000000	-0.000000	0.000000	0.400000	0.000000	0.302000	0.000000	0.000000	-0.000000	
0.009000	-0.000000	-0.000000	0.000000	0.200000	0.000000	-0.300000	0.000000	0.000000	-0.000000	3.300397	330.192261	25.327286	0.224687	0.000000	-1.318519	0.000023	0.010722	0.000002	-3.429834	341.127197	-27.576073	0.235866	0.000000	-1.048170	0.000016	0.133354	0.000003	-0.000000	-0.000000	0.000000	0.200000	0.000000	0.904000	0.000000	0.000000	-0.000000	-0.000000	-0.000000	0.000000	0.400000	0.000000	0.302000	0.000000	0.000000	-0.000000	
0.010000	-0.000000	-0.000000	0.000000	0.200000	0.000000	-0.300000	0.000000	0.000000	-0.000000	3.300397	329.872986	25.005878	0.224428	0.000000	-1.319459	0.000029	0.022000	0.000004	-4.078637	341.438324	-28.704910	0.236156	0.000000	-1.049987	0.000016	0.160674	-0.000000	-0.000000	-0.000000	0.000000	0.200000	0.000000	0.904000	0.000000	0.000000	-0.000000	-0.000000	-0.000000	0.000000	0.400000	0.000000	0.302000	0.000000	0.000000	-0.000000	
0.011000	-0.000000	-0.000000	0.000000	0.200000	0.000000	-0.300000	0.000000	0.000000	-0.000000	2.655546	331.148224	25.167429	0.224648	0.000000	-1.320246	0.000001	0.116832	0.000004	-3.590876	340.485046	-27.899181	0.235694	0.000000	-1.048539	0.000035	0.158457	0.000005	-0.000000	-0.000000	0.000000	0.200000	0.000000	0.904000	0.000000	0.000000	-0.000000	-0.000000	-0.000000	0.000000	0.400000	0.000000	0.302000	0.000000	0.000000	-0.000000	
0.012000	-0.000000	-0.000000	0.000000	0.200000	0.000000	-0.300000	0.000000	0.000000	-0.000000	3.138165	333.697021	25.167089	0.223955	0.000000	-1.321801	0.000002	0.211549	0.000007	-2.294813	340.488068	-27.900200	0.235456	0.000000	-1.048556	0.000035	-0.010735	0.000005	-0.000000	-0.000000	0.000000	0.200000	0.000000	0.904000	0.000000	0.000000	-0.000000	-0.000000	-0.000000	0.000000	0.400000	0.000000	0.302000	0.000000	0.000000	-0.000000	
0.013000	-0.000000	-0.000000	0.000000	0.200000	0.000000	-0.300000	0.000000	0.000000	-0.000000	3.299888	332.104248	24.845345	0.224748	0.000000	-1.319813	0.000028	0.100349	0.000005	-3.104659	342.729004	-28.061754	0.235009	0.000000	-1.048564	0.000045	0.048643	0.000007	-0.000000	-0.000000	0.000000	0.200000	0.000000	0.904000	0.000000	0.000000	-0.000000	-0.000000	-0.000000	0.000000	0.400000	0.000000	0.302000	0.000000	0.000000	-0.000000	
0.014000	-0.000000	-0.000000	0.000000	0.200000	0.000000	-0.300000	0.000000	0.000000	-0.000000	2.816249	330.511414	25.005541	0.224129	0.000000	-1.319848	0.000019	0.061584	0.000004	-2.942071	341.449432	-28.543356	0.235174	0.000000	-1.048424	0.000040	0.136294	0.000005	-0.000000	-0.000000	0.000000	0.200000	0.000000	0.904000	0.000000	0.000000	-0.000000	-0.000000	-0.000000	0.000000	0.400000	0.000000	0.302000	0.000000	0.000000	-0.000000	
0.015000	-0.000000	-0.000000	0.000000	0.200000	0.000000	-0.300000	0.000000	0.000000	-0.000000	3.299378	331.784973	24.845682	0.224297	0.000000	-1.320683	0.000004	0.211540	0.000005	-2.458943	339.526733	-27.900200	0.235201	0.000000	-1.049235	0.000012	-0.089374	0.000006	-0.000000	-0.000000	0.000000	0.200000	0.000000	0.904000	0.000000	0.000000	-0.000000	-0.000000	-0.000000	0.000000	0.400000	0.000000	0.302000	0.000000	0.000000	-0.000000	
0.016000	-0.000000	-0.000000	0.000000	0.200000	0.000000	-0.300000	0.000000	0.000000	-0.000000	3.943720	330.826996	25.487820	0.224152	0.000000	-1.320188	0.000032	0.178055	0.000002	-2.454311	337.286774	-27.901220	0.235053	0.000000	-1.050931	0.000033	0.065548	0.000004	-0.000000	-0.000000	0.000000	0.200000	0.000000	0.904000	0.000000	0.000000	-0.000000	-0.000000	-0.000000	0.000000	0.400000	0.000000	0.302000	0.000000	0.000000	-0.000000	
0.017000	-0.000000	-0.000000	0.000000	0.200000	0.000000	-0.300000	0.000000	0.000000	-0.000000	2.817268	330.187561	24.523598	0.223470	0.000000	-1.319480	0.000027	-0.018944	-0.000000	-2.779485	341.766296	-28.385883	0.235484	0.000000	-1.048029	-0.000003	0.011950	0.000001	-0.000000	-0.000000	0.000000	0.200000	0.000000	0.904000	0.000000	0.000000	-0.000000	-0.000000	-0.000000	0.000000	0.400000	0.000000	0.302000	0.000000	0.000000	-0.000000	
0.018000	-0.000000	-0.000000	0.000000	0.200000	0.000000	-0.300000	0.000000	0.000000	-0.000000	3.782507	332.100555	25.327286	0.223853	0.000000	-1.321000	0.000031	0.208308	0.000005	-2.291724	341.131897	-27.738647	0.234595	0.000000	-1.048296	0.000025	0.107438	0.000006	-0.000000	-0.000000	0.000000	0.200000	0.000000	0.904000	0.000000	0.000000	-0.000000	-0.000000	-0.000000	0.000000	0.400000	0.000000	0.302000	0.000000	0.000000	-0.000000	
0.019000	-0.000000	-0.000000	0.000000	0.200000	0.000000	-0.300000	0.000000	0.000000	-0.000000	2.978990	330.509125	24.685148	0.224154	0.000000	-1.320342	-0.000006	-0.012544	0.000005	-2.132225	341.133911	-27.094471	0.234175	0.000000	-1.049031	0.000007	-0.044676	0.000004	-0.000000	-0.000000	0.000000	0.200000	0.000000	0.904000	0.000000	0.000000	-0.000000	-0.000000	-0.000000	0.000000	0.400000	0.000000	0.302000	0.000000	0.000000	-0.000000	
